<svg width="1570" height="688" viewBox="0 0 1570 688" fill="none" xmlns="http://www.w3.org/2000/svg">
<g clip-path="url(#clip0_30_409)">
<rect width="1570" height="688" rx="46" fill="#A49EE4"/>
<path d="M217.814 501.538H178.131C177.85 498.255 177.099 495.276 175.88 492.603C174.707 489.929 173.065 487.631 170.955 485.707C168.891 483.737 166.381 482.236 163.426 481.204C160.471 480.126 157.117 479.586 153.365 479.586C146.798 479.586 141.24 481.181 136.69 484.371C132.187 487.56 128.763 492.134 126.417 498.091C124.119 504.048 122.97 511.201 122.97 519.55C122.97 528.368 124.142 535.756 126.488 541.713C128.88 547.623 132.328 552.079 136.831 555.081C141.334 558.036 146.751 559.514 153.083 559.514C156.695 559.514 159.932 559.068 162.793 558.177C165.654 557.239 168.14 555.902 170.251 554.167C172.362 552.431 174.074 550.344 175.387 547.905C176.748 545.419 177.662 542.628 178.131 539.532L217.814 539.813C217.345 545.911 215.633 552.126 212.678 558.459C209.722 564.744 205.524 570.56 200.083 575.908C194.689 581.208 188.005 585.476 180.031 588.713C172.057 591.949 162.793 593.568 152.239 593.568C139.012 593.568 127.144 590.73 116.638 585.054C106.177 579.379 97.8986 571.029 91.8008 560.006C85.7499 548.984 82.7245 535.498 82.7245 519.55C82.7245 503.508 85.8203 489.999 92.0119 479.023C98.2035 468 106.553 459.675 117.06 454.046C127.567 448.37 139.293 445.532 152.239 445.532C161.339 445.532 169.712 446.775 177.357 449.261C185.003 451.747 191.711 455.383 197.48 460.167C203.249 464.905 207.893 470.744 211.411 477.686C214.929 484.629 217.063 492.579 217.814 501.538ZM369.21 519.55C369.21 535.592 366.091 549.124 359.852 560.147C353.614 571.123 345.194 579.449 334.593 585.125C323.993 590.753 312.172 593.568 299.132 593.568C285.999 593.568 274.132 590.73 263.531 585.054C252.977 579.332 244.581 570.982 238.342 560.006C232.151 548.984 229.055 535.498 229.055 519.55C229.055 503.508 232.151 489.999 238.342 479.023C244.581 468 252.977 459.675 263.531 454.046C274.132 448.37 285.999 445.532 299.132 445.532C312.172 445.532 323.993 448.37 334.593 454.046C345.194 459.675 353.614 468 359.852 479.023C366.091 489.999 369.21 503.508 369.21 519.55ZM328.965 519.55C328.965 510.919 327.816 503.649 325.517 497.739C323.266 491.782 319.912 487.279 315.456 484.23C311.047 481.134 305.606 479.586 299.132 479.586C292.659 479.586 287.195 481.134 282.739 484.23C278.33 487.279 274.976 491.782 272.678 497.739C270.426 503.649 269.3 510.919 269.3 519.55C269.3 528.181 270.426 535.475 272.678 541.432C274.976 547.342 278.33 551.845 282.739 554.941C287.195 557.99 292.659 559.514 299.132 559.514C305.606 559.514 311.047 557.99 315.456 554.941C319.912 551.845 323.266 547.342 325.517 541.432C327.816 535.475 328.965 528.181 328.965 519.55ZM459.042 492.532C458.667 487.842 456.908 484.183 453.765 481.556C450.67 478.93 445.955 477.616 439.623 477.616C435.589 477.616 432.282 478.109 429.703 479.094C427.17 480.032 425.293 481.322 424.074 482.963C422.854 484.605 422.221 486.481 422.174 488.592C422.08 490.328 422.385 491.899 423.089 493.306C423.839 494.666 425.012 495.909 426.607 497.035C428.202 498.114 430.242 499.099 432.728 499.99C435.214 500.882 438.169 501.679 441.593 502.382L453.414 504.915C461.388 506.604 468.212 508.832 473.888 511.6C479.564 514.367 484.207 517.627 487.819 521.379C491.431 525.085 494.081 529.26 495.77 533.903C497.505 538.547 498.396 543.613 498.443 549.101C498.396 558.576 496.028 566.597 491.337 573.164C486.646 579.73 479.939 584.726 471.214 588.15C462.537 591.574 452.1 593.286 439.905 593.286C427.381 593.286 416.452 591.433 407.117 587.728C397.83 584.022 390.606 578.323 385.447 570.631C380.334 562.891 377.754 552.994 377.707 540.939H414.857C415.091 545.348 416.194 549.054 418.164 552.056C420.134 555.058 422.901 557.333 426.466 558.881C430.078 560.429 434.37 561.203 439.342 561.203C443.516 561.203 447.011 560.687 449.825 559.655C452.64 558.623 454.774 557.192 456.228 555.363C457.682 553.533 458.432 551.446 458.479 549.101C458.432 546.896 457.705 544.973 456.298 543.331C454.938 541.643 452.686 540.142 449.544 538.828C446.401 537.468 442.156 536.202 436.809 535.029L422.456 531.933C409.697 529.166 399.636 524.546 392.272 518.073C384.954 511.553 381.319 502.664 381.366 491.406C381.319 482.26 383.758 474.262 388.683 467.414C393.655 460.519 400.527 455.148 409.298 451.302C418.117 447.456 428.225 445.532 439.623 445.532C451.256 445.532 461.317 447.479 469.807 451.372C478.297 455.265 484.841 460.753 489.437 467.836C494.081 474.872 496.426 483.104 496.473 492.532H459.042ZM507.38 591.598V447.503H569.578C580.272 447.503 589.63 449.613 597.651 453.835C605.672 458.056 611.91 463.99 616.366 471.636C620.822 479.281 623.05 488.217 623.05 498.442C623.05 508.762 620.752 517.697 616.155 525.249C611.605 532.801 605.203 538.617 596.947 542.698C588.739 546.779 579.146 548.819 568.17 548.819H531.021V518.424H560.29C564.887 518.424 568.804 517.627 572.04 516.032C575.324 514.39 577.833 512.069 579.569 509.067C581.351 506.065 582.242 502.523 582.242 498.442C582.242 494.315 581.351 490.797 579.569 487.889C577.833 484.933 575.324 482.682 572.04 481.134C568.804 479.539 564.887 478.742 560.29 478.742H546.5V591.598H507.38ZM631.46 591.598V447.503H735.31V479.023H670.579V503.79H729.962V535.31H670.579V560.077H735.028V591.598H631.46ZM748.767 591.598V447.503H787.887V560.077H846.144V591.598H748.767ZM911.456 591.598H856.013V447.503H910.893C925.715 447.503 938.521 450.387 949.309 456.157C960.144 461.879 968.494 470.135 974.357 480.923C980.267 491.664 983.222 504.54 983.222 519.55C983.222 534.56 980.29 547.459 974.427 558.248C968.564 568.989 960.262 577.244 949.52 583.014C938.779 588.736 926.091 591.598 911.456 591.598ZM895.133 558.388H910.049C917.178 558.388 923.253 557.239 928.272 554.941C933.338 552.642 937.184 548.679 939.811 543.05C942.484 537.421 943.821 529.588 943.821 519.55C943.821 509.512 942.461 501.679 939.74 496.05C937.067 490.421 933.127 486.458 927.92 484.16C922.76 481.861 916.428 480.712 908.923 480.712H895.133V558.388Z" fill="#5957B9"/>
<path d="M994.686 387.506V377.568H1034.17V387.506H1020.51V423H1008.35V387.506H994.686ZM1038.82 377.568H1054.17L1064.73 403.301H1065.26L1075.82 377.568H1091.17V423H1079.1V396.734H1078.75L1068.63 422.645H1061.35L1051.24 396.557H1050.88V423H1038.82V377.568Z" fill="#5957B9"/>
<rect width="1663" height="182" fill="#5957B9"/>
</g>
<defs>
<clipPath id="clip0_30_409">
<rect width="1570" height="688" rx="46" fill="white"/>
</clipPath>
</defs>
</svg>
