<svg width="1570" height="688" viewBox="0 0 1570 688" fill="none" xmlns="http://www.w3.org/2000/svg">
<rect width="1570" height="688" rx="46" fill="#A49EE4"/>
<path d="M360.388 339.901H312.545C312.206 335.942 311.301 332.351 309.831 329.128C308.417 325.904 306.438 323.133 303.893 320.814C301.405 318.439 298.379 316.63 294.816 315.385C291.254 314.085 287.21 313.434 282.686 313.434C274.769 313.434 268.067 315.357 262.582 319.203C257.153 323.048 253.024 328.562 250.197 335.744C247.426 342.926 246.04 351.55 246.04 361.617C246.04 372.248 247.454 381.155 250.282 388.337C253.166 395.463 257.322 400.835 262.751 404.455C268.18 408.018 274.712 409.799 282.347 409.799C286.701 409.799 290.603 409.262 294.053 408.187C297.503 407.056 300.5 405.444 303.045 403.352C305.589 401.26 307.654 398.743 309.237 395.802C310.877 392.805 311.98 389.44 312.545 385.708L360.388 386.047C359.823 393.399 357.759 400.892 354.196 408.527C350.633 416.104 345.572 423.117 339.012 429.564C332.508 435.954 324.45 441.1 314.836 445.003C305.222 448.905 294.053 450.856 281.329 450.856C265.381 450.856 251.073 447.434 238.406 440.591C225.795 433.749 215.813 423.682 208.461 410.393C201.166 397.103 197.519 380.844 197.519 361.617C197.519 342.276 201.251 325.989 208.716 312.756C216.181 299.466 226.247 289.428 238.915 282.642C251.582 275.799 265.72 272.378 281.329 272.378C292.3 272.378 302.394 273.876 311.612 276.874C320.83 279.871 328.917 284.254 335.873 290.022C342.829 295.734 348.428 302.774 352.669 311.144C356.91 319.514 359.483 329.099 360.388 339.901ZM542.919 361.617C542.919 380.957 539.158 397.273 531.636 410.562C524.115 423.796 513.964 433.834 501.183 440.676C488.402 447.463 474.151 450.856 458.43 450.856C442.595 450.856 428.288 447.434 415.507 440.591C402.783 433.692 392.66 423.626 385.139 410.393C377.674 397.103 373.941 380.844 373.941 361.617C373.941 342.276 377.674 325.989 385.139 312.756C392.66 299.466 402.783 289.428 415.507 282.642C428.288 275.799 442.595 272.378 458.43 272.378C474.151 272.378 488.402 275.799 501.183 282.642C513.964 289.428 524.115 299.466 531.636 312.756C539.158 325.989 542.919 342.276 542.919 361.617ZM494.397 361.617C494.397 351.211 493.011 342.446 490.24 335.32C487.526 328.138 483.482 322.709 478.11 319.033C472.794 315.301 466.234 313.434 458.43 313.434C450.626 313.434 444.037 315.301 438.665 319.033C433.349 322.709 429.306 328.138 426.535 335.32C423.82 342.446 422.463 351.211 422.463 361.617C422.463 372.022 423.82 380.816 426.535 387.998C429.306 395.124 433.349 400.553 438.665 404.285C444.037 407.961 450.626 409.799 458.43 409.799C466.234 409.799 472.794 407.961 478.11 404.285C483.482 400.553 487.526 395.124 490.24 387.998C493.011 380.816 494.397 372.022 494.397 361.617ZM651.224 329.043C650.772 323.388 648.651 318.976 644.862 315.81C641.13 312.643 635.446 311.059 627.812 311.059C622.948 311.059 618.961 311.653 615.851 312.841C612.797 313.972 610.535 315.527 609.065 317.506C607.594 319.485 606.831 321.748 606.774 324.292C606.661 326.385 607.029 328.279 607.877 329.976C608.782 331.616 610.196 333.114 612.119 334.472C614.041 335.772 616.501 336.96 619.499 338.034C622.496 339.109 626.059 340.07 630.187 340.919L644.438 343.972C654.052 346.008 662.28 348.695 669.123 352.031C675.966 355.368 681.564 359.298 685.919 363.822C690.273 368.29 693.469 373.323 695.505 378.922C697.597 384.52 698.671 390.628 698.728 397.244C698.671 408.668 695.816 418.338 690.16 426.256C684.505 434.173 676.418 440.196 665.9 444.324C655.437 448.452 642.855 450.516 628.151 450.516C613.052 450.516 599.875 448.283 588.621 443.815C577.424 439.347 568.715 432.476 562.494 423.202C556.33 413.871 553.22 401.938 553.163 387.404H597.952C598.235 392.72 599.564 397.188 601.939 400.807C604.314 404.426 607.651 407.169 611.949 409.035C616.303 410.902 621.478 411.835 627.473 411.835C632.506 411.835 636.719 411.213 640.112 409.969C643.505 408.724 646.078 407 647.831 404.794C649.584 402.589 650.489 400.072 650.546 397.244C650.489 394.586 649.613 392.268 647.916 390.288C646.276 388.253 643.562 386.443 639.773 384.86C635.984 383.22 630.866 381.693 624.419 380.279L607.114 376.546C591.732 373.21 579.601 367.639 570.723 359.835C561.9 351.975 557.518 341.258 557.574 327.685C557.518 316.658 560.458 307.016 566.396 298.759C572.391 290.446 580.676 283.971 591.251 279.334C601.883 274.696 614.07 272.378 627.812 272.378C641.837 272.378 653.967 274.725 664.203 279.418C674.439 284.112 682.328 290.729 687.87 299.268C693.469 307.751 696.296 317.676 696.353 329.043H651.224ZM709.503 448.48V274.753H784.491C797.385 274.753 808.667 277.298 818.337 282.387C828.007 287.477 835.529 294.631 840.901 303.849C846.274 313.067 848.96 323.84 848.96 336.168C848.96 348.61 846.189 359.383 840.647 368.488C835.161 377.593 827.442 384.605 817.489 389.525C807.592 394.445 796.027 396.905 782.794 396.905H738.005V360.259H773.293C778.836 360.259 783.558 359.298 787.46 357.375C791.418 355.396 794.444 352.597 796.536 348.977C798.685 345.358 799.76 341.088 799.76 336.168C799.76 331.192 798.685 326.95 796.536 323.444C794.444 319.881 791.418 317.167 787.46 315.301C783.558 313.378 778.836 312.416 773.293 312.416H756.667V448.48H709.503ZM859.099 448.48V274.753H984.305V312.756H906.263V342.615H977.858V380.618H906.263V410.478H983.965V448.48H859.099ZM1000.53 448.48V274.753H1047.69V410.478H1117.93V448.48H1000.53ZM1196.67 448.48H1129.83V274.753H1196C1213.87 274.753 1229.31 278.231 1242.31 285.187C1255.38 292.086 1265.44 302.039 1272.51 315.046C1279.64 327.997 1283.2 343.52 1283.2 361.617C1283.2 379.713 1279.66 395.265 1272.6 408.272C1265.53 421.222 1255.52 431.176 1242.57 438.131C1229.62 445.031 1214.32 448.48 1196.67 448.48ZM1176.99 408.442H1194.98C1203.57 408.442 1210.9 407.056 1216.95 404.285C1223.06 401.514 1227.69 396.735 1230.86 389.949C1234.08 383.163 1235.7 373.719 1235.7 361.617C1235.7 349.515 1234.06 340.07 1230.78 333.284C1227.55 326.498 1222.8 321.719 1216.52 318.948C1210.3 316.177 1202.67 314.792 1193.62 314.792H1176.99V408.442Z" fill="#5957B9"/>
<path d="M1263.03 211.207V199.225H1310.64V211.207H1294.16V254H1279.51V211.207H1263.03ZM1316.24 199.225H1334.74L1347.48 230.25H1348.12L1360.85 199.225H1379.36V254H1364.81V222.333H1364.38L1352.18 253.572H1343.41L1331.21 222.119H1330.79V254H1316.24V199.225Z" fill="#5957B9"/>
</svg>
