<svg width="185" height="91" viewBox="0 0 185 91" fill="none" xmlns="http://www.w3.org/2000/svg">
<rect width="185" height="90.0333" rx="7" fill="#B597F3"/>
<path d="M24.274 22.4729L28.6888 37.6513H28.8569L33.2717 22.4729H39.8729L32.7672 44.0002H24.7785L17.6729 22.4729H24.274Z" fill="#664E99"/>
<path d="M46.6065 22.4729V44.0002H40.7622V22.4729H46.6065Z" fill="#664E99"/>
<path d="M59.7968 29.2001C59.7408 28.4994 59.478 27.9528 59.0085 27.5604C58.546 27.168 57.8417 26.9717 56.8957 26.9717C56.293 26.9717 55.799 27.0453 55.4136 27.1925C55.0352 27.3326 54.7549 27.5253 54.5727 27.7706C54.3905 28.0159 54.2959 28.2962 54.2889 28.6115C54.2749 28.8708 54.3204 29.1055 54.4255 29.3158C54.5376 29.519 54.7128 29.7047 54.9511 29.8729C55.1893 30.034 55.4942 30.1812 55.8656 30.3144C56.237 30.4475 56.6785 30.5666 57.19 30.6717L58.9559 31.0501C60.1472 31.3024 61.1668 31.6353 62.0147 32.0487C62.8626 32.4622 63.5564 32.9492 64.096 33.5098C64.6356 34.0634 65.0315 34.6871 65.2838 35.3808C65.543 36.0746 65.6762 36.8314 65.6832 37.6513C65.6762 39.0668 65.3223 40.2651 64.6215 41.2462C63.9208 42.2272 62.9187 42.9735 61.6153 43.4851C60.3189 43.9966 58.7597 44.2524 56.9377 44.2524C55.0667 44.2524 53.434 43.9756 52.0394 43.422C50.6519 42.8684 49.5728 42.017 48.8019 40.8678C48.0381 39.7115 47.6527 38.2329 47.6457 36.432H53.1957C53.2307 37.0907 53.3954 37.6443 53.6897 38.0928C53.984 38.5412 54.3975 38.8811 54.9301 39.1124C55.4697 39.3436 56.1108 39.4592 56.8536 39.4592C57.4773 39.4592 57.9994 39.3822 58.4198 39.228C58.8403 39.0738 59.1591 38.8601 59.3764 38.5868C59.5936 38.3135 59.7057 38.0017 59.7127 37.6513C59.7057 37.3219 59.5971 37.0346 59.3869 36.7894C59.1837 36.5371 58.8473 36.3128 58.3778 36.1166C57.9083 35.9134 57.2741 35.7242 56.4752 35.549L54.3309 35.0865C52.4249 34.6731 50.9217 33.9828 49.8215 33.0158C48.7284 32.0417 48.1853 30.7138 48.1923 29.032C48.1853 27.6655 48.5497 26.4707 49.2855 25.4476C50.0283 24.4175 51.0549 23.6151 52.3653 23.0405C53.6827 22.4659 55.1929 22.1786 56.8957 22.1786C58.6336 22.1786 60.1367 22.4694 61.4051 23.051C62.6734 23.6326 63.651 24.4525 64.3377 25.5107C65.0315 26.5618 65.3819 27.7916 65.3889 29.2001H59.7968Z" fill="#664E99"/>
<path d="M66.7223 44.0002V22.4729H72.5667V30.882H80.303V22.4729H86.1473V44.0002H80.303V35.5911H72.5667V44.0002H66.7223Z" fill="#664E99"/>
<path d="M93.2043 44.0002L86.8554 22.4729H93.3724L96.3156 35.7172H96.4838L99.9736 22.4729H105.103L108.593 35.7592H108.761L111.704 22.4729H118.221L111.872 44.0002H106.28L102.622 31.9751H102.454L98.7963 44.0002H93.2043Z" fill="#664E99"/>
<path d="M122.007 44.0002H115.7L122.805 22.4729H130.794L137.9 44.0002H131.593L126.884 28.4013H126.716L122.007 44.0002ZM120.829 35.507H132.686V39.8797H120.829V35.507Z" fill="#664E99"/>
<path d="M149.555 29.2001C149.499 28.4994 149.237 27.9528 148.767 27.5604C148.305 27.168 147.6 26.9717 146.654 26.9717C146.052 26.9717 145.558 27.0453 145.172 27.1925C144.794 27.3326 144.513 27.5253 144.331 27.7706C144.149 28.0159 144.054 28.2962 144.047 28.6115C144.033 28.8708 144.079 29.1055 144.184 29.3158C144.296 29.519 144.471 29.7047 144.71 29.8729C144.948 30.034 145.253 30.1812 145.624 30.3144C145.996 30.4475 146.437 30.5666 146.949 30.6717L148.714 31.0501C149.906 31.3024 150.925 31.6353 151.773 32.0487C152.621 32.4622 153.315 32.9492 153.855 33.5098C154.394 34.0634 154.79 34.6871 155.042 35.3808C155.302 36.0746 155.435 36.8314 155.442 37.6513C155.435 39.0668 155.081 40.2651 154.38 41.2462C153.679 42.2272 152.677 42.9735 151.374 43.4851C150.077 43.9966 148.518 44.2524 146.696 44.2524C144.825 44.2524 143.192 43.9756 141.798 43.422C140.41 42.8684 139.331 42.017 138.56 40.8678C137.797 39.7115 137.411 38.2329 137.404 36.432H142.954C142.989 37.0907 143.154 37.6443 143.448 38.0928C143.743 38.5412 144.156 38.8811 144.689 39.1124C145.228 39.3436 145.869 39.4592 146.612 39.4592C147.236 39.4592 147.758 39.3822 148.178 39.228C148.599 39.0738 148.918 38.8601 149.135 38.5868C149.352 38.3135 149.464 38.0017 149.471 37.6513C149.464 37.3219 149.356 37.0346 149.145 36.7894C148.942 36.5371 148.606 36.3128 148.136 36.1166C147.667 35.9134 147.033 35.7242 146.234 35.549L144.089 35.0865C142.183 34.6731 140.68 33.9828 139.58 33.0158C138.487 32.0417 137.944 30.7138 137.951 29.032C137.944 27.6655 138.308 26.4707 139.044 25.4476C139.787 24.4175 140.813 23.6151 142.124 23.0405C143.441 22.4659 144.951 22.1786 146.654 22.1786C148.392 22.1786 149.895 22.4694 151.164 23.051C152.432 23.6326 153.41 24.4525 154.096 25.5107C154.79 26.5618 155.14 27.7916 155.147 29.2001H149.555Z" fill="#664E99"/>
<path d="M18.3876 74.0001V52.4729H24.2319V60.882H31.9683V52.4729H37.8126V74.0001H31.9683V65.5911H24.2319V74.0001H18.3876Z" fill="#664E99"/>
<path d="M64.2142 60.5456H58.2858C58.2438 60.0551 58.1317 59.6101 57.9495 59.2107C57.7743 58.8112 57.529 58.4679 57.2137 58.1805C56.9053 57.8862 56.5304 57.662 56.0889 57.5078C55.6475 57.3466 55.1464 57.2661 54.5858 57.2661C53.6048 57.2661 52.7744 57.5043 52.0946 57.9808C51.4219 58.4573 50.9103 59.1406 50.56 60.0305C50.2166 60.9205 50.0449 61.9892 50.0449 63.2365C50.0449 64.5539 50.2201 65.6576 50.5705 66.5476C50.9279 67.4305 51.4429 68.0963 52.1157 68.5448C52.7884 68.9862 53.5978 69.207 54.5438 69.207C55.0834 69.207 55.5669 69.1404 55.9943 69.0073C56.4218 68.8671 56.7932 68.6674 57.1085 68.4081C57.4239 68.1488 57.6797 67.837 57.8759 67.4726C58.0791 67.1012 58.2157 66.6842 58.2858 66.2217L64.2142 66.2638C64.1442 67.1748 63.8884 68.1033 63.4469 69.0493C63.0054 69.9883 62.3782 70.8573 61.5654 71.6561C60.7595 72.448 59.7609 73.0857 58.5696 73.5692C57.3783 74.0527 55.9943 74.2945 54.4176 74.2945C52.4415 74.2945 50.6686 73.8705 49.0989 73.0226C47.5362 72.1747 46.2994 70.9273 45.3884 69.2805C44.4844 67.6338 44.0324 65.6191 44.0324 63.2365C44.0324 60.8399 44.4949 58.8217 45.4199 57.182C46.3449 55.5352 47.5923 54.2913 49.162 53.4504C50.7317 52.6025 52.4835 52.1786 54.4176 52.1786C55.7771 52.1786 57.028 52.3643 58.1702 52.7357C59.3124 53.1071 60.3145 53.6501 61.1764 54.3649C62.0384 55.0727 62.7321 55.9451 63.2577 56.9823C63.7833 58.0194 64.1021 59.2072 64.2142 60.5456Z" fill="#664E99"/>
<path d="M76.281 52.4729L80.6957 67.6513H80.8639L85.2787 52.4729H91.8798L84.7741 74.0001H76.7855L69.6798 52.4729H76.281Z" fill="#664E99"/>
<path d="M155.206 15.6726V14.4609H160.02V15.6726H158.354V20.0002H156.872V15.6726H155.206Z" fill="#664E99"/>
<path d="M160.281 14.4609H162.153L163.44 17.5984H163.505L164.793 14.4609H166.664V20.0002H165.193V16.7978H165.15L163.916 19.9569H163.029L161.796 16.7762H161.753V20.0002H160.281V14.4609Z" fill="#664E99"/>
</svg>
